<svg width="16" height="16" viewBox="0 0 16 16" fill="none" xmlns="http://www.w3.org/2000/svg">
<path d="M8.99951 13.9989V2.49893C8.99951 2.36632 8.94683 2.23915 8.85307 2.14538C8.7593 2.05161 8.63212 1.99893 8.49951 1.99893H2.49951C2.3669 1.99893 2.23973 2.05161 2.14596 2.14538C2.05219 2.23915 1.99951 2.36632 1.99951 2.49893V13.9989" stroke="#AEC3E1" stroke-linecap="round" stroke-linejoin="round"/>
<path d="M13.9995 13.9989V6.49893C13.9995 6.36632 13.9468 6.23915 13.8531 6.14538C13.7593 6.05161 13.6321 5.99893 13.4995 5.99893H8.99951" stroke="#AEC3E1" stroke-linecap="round" stroke-linejoin="round"/>
<path d="M3.99951 4.49893H5.99951" stroke="#AEC3E1" stroke-linecap="round" stroke-linejoin="round"/>
<path d="M4.99951 9.49893H6.99951" stroke="#AEC3E1" stroke-linecap="round" stroke-linejoin="round"/>
<path d="M3.99951 11.9989H5.99951" stroke="#AEC3E1" stroke-linecap="round" stroke-linejoin="round"/>
<path d="M10.9995 10.9989H11.9995" stroke="#AEC3E1" stroke-linecap="round" stroke-linejoin="round"/>
<path d="M10.9995 8.49893H11.9995" stroke="#AEC3E1" stroke-linecap="round" stroke-linejoin="round"/>
</svg>
