<svg width="22" height="20" viewBox="0 0 22 20" fill="none" xmlns="http://www.w3.org/2000/svg">
<path d="M8.91276 16.1162H1.03687" stroke="#132144" stroke-width="1.5" stroke-linecap="round" stroke-linejoin="round"/>
<path d="M12.4255 4.00046H20.3014" stroke="#132144" stroke-width="1.5" stroke-linecap="round" stroke-linejoin="round"/>
<path fill-rule="evenodd" clip-rule="evenodd" d="M6.90786 3.93282C6.90786 2.31325 5.58516 1 3.95393 1C2.3227 1 1 2.31325 1 3.93282C1 5.55239 2.3227 6.86563 3.95393 6.86563C5.58516 6.86563 6.90786 5.55239 6.90786 3.93282Z" stroke="#132144" stroke-width="1.5" stroke-linecap="round" stroke-linejoin="round"/>
<path fill-rule="evenodd" clip-rule="evenodd" d="M20.9999 16.0672C20.9999 14.4476 19.6782 13.1344 18.047 13.1344C16.4147 13.1344 15.092 14.4476 15.092 16.0672C15.092 17.6868 16.4147 19 18.047 19C19.6782 19 20.9999 17.6868 20.9999 16.0672Z" stroke="#132144" stroke-width="1.5" stroke-linecap="round" stroke-linejoin="round"/>
</svg>
