<svg width="119" height="39" viewBox="0 0 119 39" fill="none" xmlns="http://www.w3.org/2000/svg">
<path d="M11.5977 15.6602L11.5586 14.9961C11.5586 13.9935 11.2852 13.1471 10.7383 12.457C10.2044 11.7539 9.57292 11.4023 8.84375 11.4023H8.60938C7.94531 11.4023 7.35938 11.7865 6.85156 12.5547C6.34375 13.3099 6.08984 14.2083 6.08984 15.25V16.2461C6.08984 17.4961 6.38281 18.5443 6.96875 19.3906C7.56771 20.237 8.21875 20.6602 8.92188 20.6602H9.05859C9.72266 20.6602 10.3021 20.3411 10.7969 19.7031C11.3047 19.0521 11.5586 18.3034 11.5586 17.457L11.5781 17.3398L11.5977 17.2031L11.6172 16.793V15.7969L11.5977 15.6602ZM12.6719 29.1758C12.0469 29.0716 11.5 29.0195 11.0312 29.0195L10.875 29L10.7383 28.9805L9.85938 28.9219C9.75521 28.9089 9.66406 28.9023 9.58594 28.9023L8.94141 28.8438H8.51172L8.375 28.8633L7.96484 28.8828L7.4375 28.9414C6.8125 28.9414 6.24609 29.2148 5.73828 29.7617C5.23047 30.3216 4.97656 30.9857 4.97656 31.7539V32.1641C4.97656 32.9974 5.29557 33.6354 5.93359 34.0781C6.58464 34.5339 7.40495 34.7617 8.39453 34.7617H9.25391C10.9206 34.7617 12.3789 34.306 13.6289 33.3945C14.4102 32.8216 14.8008 32.0143 14.8008 30.9727L14.7812 30.8359C14.7812 30.4323 14.6055 30.0547 14.2539 29.7031C13.9023 29.3516 13.375 29.1758 12.6719 29.1758ZM19.3125 10.5234C19.5599 10.7708 19.6836 11.1615 19.6836 11.6953C19.6836 12.2292 19.4232 12.6133 18.9023 12.8477C18.0169 13.2383 17.5482 13.4857 17.4961 13.5898C17.3398 13.8893 17.2617 14.3711 17.2617 15.0352L17.2812 15.543C17.3203 16.0768 17.3398 16.4674 17.3398 16.7148C17.3398 17.5612 17.125 18.388 16.6953 19.1953C15.5234 21.4349 13.362 22.7435 10.2109 23.1211C8.81771 23.2904 8.09505 23.3815 8.04297 23.3945C7.22266 23.668 6.8125 24.0781 6.8125 24.625C6.8125 25.1068 7.07292 25.4388 7.59375 25.6211C8.11458 25.7904 9.55339 25.9531 11.9102 26.1094C14.2799 26.2656 15.875 26.5651 16.6953 27.0078C17.5286 27.4505 18.1276 27.9648 18.4922 28.5508C18.8698 29.1237 19.0586 29.931 19.0586 30.9727C19.0586 32.0143 18.7591 32.9648 18.1602 33.8242C16.9362 35.582 15.0091 36.8255 12.3789 37.5547C11.0768 37.9193 9.72266 38.1016 8.31641 38.1016H7.71094C5.3151 38.1016 3.47917 37.6523 2.20312 36.7539C0.940104 35.8685 0.308594 34.7812 0.308594 33.4922C0.308594 32.6328 0.588542 31.8125 1.14844 31.0312C1.2526 30.888 1.52604 30.569 1.96875 30.0742C2.42448 29.5794 2.65234 29.2018 2.65234 28.9414C2.65234 28.9154 2.41797 28.5768 1.94922 27.9258C1.48047 27.2617 1.24609 26.5977 1.24609 25.9336C1.24609 25.2695 1.59766 24.4818 2.30078 23.5703C3.00391 22.6589 3.35547 22.1445 3.35547 22.0273C3.35547 21.9102 3.01042 21.474 2.32031 20.7188C1.64323 19.9375 1.14844 18.987 0.835938 17.8672C0.731771 17.4896 0.679688 17.099 0.679688 16.6953C0.679688 16.6562 0.679688 16.6107 0.679688 16.5586C0.679688 15.8164 0.829427 15.0677 1.12891 14.3125C1.6237 13.0625 2.42448 12.099 3.53125 11.4219C5.05469 10.4714 6.82552 9.99609 8.84375 9.99609H9.42969C9.53385 9.99609 10.3021 10.0482 11.7344 10.1523L12.7891 10.2695C13.375 10.3346 13.7135 10.3672 13.8047 10.3672L18.043 10.1328C18.6549 10.1328 19.0781 10.263 19.3125 10.5234ZM31.8516 12.2617H31.4805C30.3607 12.2617 29.4427 12.8932 28.7266 14.1562C28.0234 15.4193 27.6719 16.9297 27.6719 18.6875V19.7812C27.6719 21.7604 28.082 23.4336 28.9023 24.8008C29.7227 26.168 30.7057 26.8516 31.8516 26.8516H32.2227C33.2253 26.8516 34.0977 26.3438 34.8398 25.3281C35.5951 24.2995 35.9727 22.9323 35.9727 21.2266L36.0117 20.8164L36.0312 19.9961V19.7812L36.0117 19.5664V19.1562C35.9857 18.8698 35.9727 18.6615 35.9727 18.5312C35.9727 16.7995 35.5625 15.3216 34.7422 14.0977C33.9219 12.8737 32.9583 12.2617 31.8516 12.2617ZM31.8711 9.66406H32.8477C34.0065 9.66406 35.1979 9.9375 36.4219 10.4844C38.7526 11.526 40.3542 13.2188 41.2266 15.5625C41.6693 16.7734 41.8906 18.0104 41.8906 19.2734V19.625C41.8906 20.9792 41.6172 22.3073 41.0703 23.6094C40.5234 24.9115 39.7878 25.9922 38.8633 26.8516C36.9362 28.5964 34.7227 29.4688 32.2227 29.4688C32.0273 29.4688 31.832 29.4622 31.6367 29.4492C30.3867 29.4492 29.1562 29.2018 27.9453 28.707C26.7474 28.1992 25.7643 27.5286 24.9961 26.6953C23.3424 24.8724 22.5156 22.5872 22.5156 19.8398V19.5078L22.5352 19.1758C22.5482 17.9648 22.776 16.7669 23.2188 15.582C24.0781 13.3164 25.6536 11.6432 27.9453 10.5625C29.2344 9.96354 30.543 9.66406 31.8711 9.66406Z" fill="#FF494C"/>
<path d="M48.043 4.78125V4.33203C48.082 4.13672 48.1016 3.96094 48.1016 3.80469C48.1016 3.19271 48.3945 2.59375 48.9805 2.00781C49.5664 1.42188 50.1133 1.12891 50.6211 1.12891H51.1875C51.8516 1.12891 52.4375 1.4349 52.9453 2.04688C53.4661 2.64583 53.7266 3.11458 53.7266 3.45312L53.7852 3.96094V4.17578C53.7852 5.19141 53.4727 5.97266 52.8477 6.51953C52.2357 7.06641 51.4284 7.33984 50.4258 7.33984L50.25 7.37891H49.918C49.4362 7.37891 49 7.15104 48.6094 6.69531C48.2318 6.22656 48.043 5.58854 48.043 4.78125ZM53.7266 23.082C53.7266 25.9206 53.6419 27.9779 53.4727 29.2539C53.3034 30.5299 52.9258 31.6953 52.3398 32.75C51.7669 33.8177 50.8424 34.7161 49.5664 35.4453C48.3034 36.1875 47.0208 36.5586 45.7188 36.5586C44.4167 36.5586 43.7656 36.0378 43.7656 34.9961C43.7656 34.7227 43.9284 34.3516 44.2539 33.8828C44.5794 33.4141 45.2174 33.0365 46.168 32.75C47.1185 32.4766 47.7565 31.8711 48.082 30.9336C48.3294 30.2174 48.4531 27.6068 48.4531 23.1016C48.4531 18.5964 48.375 15.9792 48.2188 15.25C48.0755 14.5208 47.6654 13.707 46.9883 12.8086C46.3242 11.8971 45.9922 11.4154 45.9922 11.3633C45.9922 10.9596 46.3633 10.6341 47.1055 10.3867C48.4727 9.93099 49.9635 9.70312 51.5781 9.70312H51.9297C52.7891 9.70312 53.2773 10.1198 53.3945 10.9531C53.6159 12.4635 53.7266 15.5104 53.7266 20.0938V23.082ZM67.3594 12.2617H66.9883C65.8685 12.2617 64.9505 12.8932 64.2344 14.1562C63.5312 15.4193 63.1797 16.9297 63.1797 18.6875V19.7812C63.1797 21.7604 63.5898 23.4336 64.4102 24.8008C65.2305 26.168 66.2135 26.8516 67.3594 26.8516H67.7305C68.7331 26.8516 69.6055 26.3438 70.3477 25.3281C71.1029 24.2995 71.4805 22.9323 71.4805 21.2266L71.5195 20.8164L71.5391 19.9961V19.7812L71.5195 19.5664V19.1562C71.4935 18.8698 71.4805 18.6615 71.4805 18.5312C71.4805 16.7995 71.0703 15.3216 70.25 14.0977C69.4297 12.8737 68.4661 12.2617 67.3594 12.2617ZM67.3789 9.66406H68.3555C69.5143 9.66406 70.7057 9.9375 71.9297 10.4844C74.2604 11.526 75.862 13.2188 76.7344 15.5625C77.1771 16.7734 77.3984 18.0104 77.3984 19.2734V19.625C77.3984 20.9792 77.125 22.3073 76.5781 23.6094C76.0312 24.9115 75.2956 25.9922 74.3711 26.8516C72.444 28.5964 70.2305 29.4688 67.7305 29.4688C67.5352 29.4688 67.3398 29.4622 67.1445 29.4492C65.8945 29.4492 64.6641 29.2018 63.4531 28.707C62.2552 28.1992 61.2721 27.5286 60.5039 26.6953C58.8503 24.8724 58.0234 22.5872 58.0234 19.8398V19.5078L58.043 19.1758C58.056 17.9648 58.2839 16.7669 58.7266 15.582C59.5859 13.3164 61.1615 11.6432 63.4531 10.5625C64.7422 9.96354 66.0508 9.66406 67.3789 9.66406ZM87.2617 23.3359C87.2617 24.4427 87.5221 25.3086 88.043 25.9336C88.5768 26.5456 89.306 26.8516 90.2305 26.8516H91.1289C92.1576 26.8516 93.0495 26.2461 93.8047 25.0352C94.5729 23.8112 94.957 22.3073 94.957 20.5234V19.2148C94.957 17.2357 94.5599 15.6536 93.7656 14.4688C92.9844 13.2839 92.0208 12.6914 90.875 12.6914H90.543C89.2539 12.6914 88.362 13.1341 87.8672 14.0195C87.3724 14.8919 87.125 16.7279 87.125 19.5273V19.918L87.1445 20.1133V21.0703L87.1641 21.2656C87.1641 21.3958 87.1641 21.526 87.1641 21.6562L87.2422 22.9648C87.2552 23.0951 87.2617 23.2188 87.2617 23.3359ZM83.7852 28.8438C82.8346 28.8438 82.2031 28.681 81.8906 28.3555C81.5911 28.0169 81.4414 27.6133 81.4414 27.1445C81.4414 26.6758 81.5651 25.6667 81.8125 24.1172C82.0599 22.5547 82.1836 21.4805 82.1836 20.8945L82.2031 20.4258V18.5117L82.2227 17.5547V14.1758C82.2227 9.13672 82.1576 6.2526 82.0273 5.52344C81.8971 4.79427 81.5781 4.22786 81.0703 3.82422C80.1979 3.12109 79.7617 2.65234 79.7617 2.41797C79.7617 1.87109 80.276 1.46094 81.3047 1.1875C82.8151 0.783854 84.0326 0.582031 84.957 0.582031H85.4062C86.3698 0.582031 86.9492 0.966146 87.1445 1.73438C87.2747 2.25521 87.3398 3.77214 87.3398 6.28516C87.3398 8.79818 87.3724 10.1979 87.4375 10.4844C87.5417 10.9401 87.8802 11.168 88.4531 11.168C88.4531 11.168 88.6224 11.1094 88.9609 10.9922C90.5104 10.4453 91.832 10.1719 92.9258 10.1719C95.2826 10.1719 97.151 11.0508 98.5312 12.8086C99.9115 14.5534 100.602 16.6693 100.602 19.1562V19.6445C100.602 20.9727 100.328 22.2747 99.7812 23.5508C98.7266 26.0378 97.0599 27.737 94.7812 28.6484C93.5443 29.1432 92.3333 29.3906 91.1484 29.3906H90.6797C90.2891 29.3906 89.6901 29.306 88.8828 29.1367C88.0755 28.9674 87.2552 28.8828 86.4219 28.8828L85.9922 28.8438C85.5495 28.8047 85.2565 28.7852 85.1133 28.7852L84.6641 28.8047C84.2734 28.8307 83.9805 28.8438 83.7852 28.8438ZM116.891 10.6016C117.477 10.9401 117.77 11.6562 117.77 12.75C117.77 13.8438 117.691 14.5664 117.535 14.918C117.379 15.2695 117.073 15.4453 116.617 15.4453C115.888 15.4453 115.1 14.918 114.254 13.8633C113.421 12.8086 112.366 12.2812 111.09 12.2812C110.361 12.2812 109.781 12.4701 109.352 12.8477C108.922 13.2253 108.707 13.6419 108.707 14.0977C108.707 14.8789 109.085 15.5299 109.84 16.0508C110.204 16.2982 111.37 16.8385 113.336 17.6719C115.315 18.4922 116.728 19.3451 117.574 20.2305C118.434 21.1029 118.863 22.2943 118.863 23.8047C118.863 25.3151 118.219 26.6302 116.93 27.75C115.641 28.8698 113.987 29.4297 111.969 29.4297H110.934C108.408 29.4297 106.513 29.1302 105.25 28.5312C104.365 28.1146 103.922 27.125 103.922 25.5625C103.922 24 104.215 23.2188 104.801 23.2188C105.543 23.2188 106.461 23.8242 107.555 25.0352C108.661 26.2461 109.859 26.8516 111.148 26.8516C111.93 26.8516 112.587 26.6888 113.121 26.3633C113.668 26.0247 113.941 25.5039 113.941 24.8008C113.941 24.0846 113.564 23.4466 112.809 22.8867C112.405 22.5872 111.311 22.0599 109.527 21.3047C107.757 20.5365 106.493 19.7943 105.738 19.0781C104.605 18.0104 104.039 16.7018 104.039 15.1523C104.039 13.5898 104.703 12.3008 106.031 11.2852C107.359 10.2565 108.909 9.74219 110.68 9.74219H111.207C113.993 9.74219 115.888 10.0286 116.891 10.6016Z" fill="white"/>
</svg>
